<svg xmlns="http://www.w3.org/2000/svg" viewBox="0 0 38 41.87">
    <title>Penalty</title>
    <g id="f3f94f46-89e9-4d00-93c7-bbddb3bafd3e" data-name="Layer 2">
        <g id="a090fb40-312f-4b31-901d-e79207e27235" data-name="Layer 1">
            <path d="M19,0A19,19,0,0,0,5.23,32.09c2.45,2.58,2.32,4,5.93,7.49.7.69,1.8-1,2.84-.58.68.27,1.2,2.75,2.05,2.87C16.65,42,17.3,40,18,40c1,0,2,1.94,2.84,1.83S22.3,39.21,23,39c1.4-.43,2.7,1.3,3.58.57,4.22-3.48,3.43-4.71,5.86-7.14A19,19,0,0,0,19,0ZM13,26c-2.22,1.11-5-1-5-3.5A4.49,4.49,0,0,1,12.5,18C17,18,17,20,17,22.5S15,25,13,26Zm7.9,5.41c-.58.81-3.89,1.16-4.34,0S18,26.14,18.73,26,21.48,30.59,20.9,31.41ZM25.5,27C22,26,21,25,21,22.5S21,18,25.5,18A4.49,4.49,0,0,1,30,22.5C30,25,27.89,27.68,25.5,27Z" fill="#fffc"/>
        </g>
    </g>
</svg>